<?xml version="1.0" encoding="utf-8"?>
<svg viewBox="155.228 51.287 190.255 66.253" style="background: rgba(0, 0, 0, 0);" xmlns="http://www.w3.org/2000/svg">
  <defs>
    <filter id="editing-extrude-glow">
      <feFlood flood-color="#333333" result="flood-1"/>
      <feMorphology operator="erode" radius="1" in="SourceAlpha" result="erode"/>
      <feComposite operator="in" in="flood-1" in2="erode" result="comp1"/>
      <feConvolveMatrix order="0,0" divisor="1" in="comp1" result="convolve" kernelMatrix=""/>
      <feOffset dx="0" dy="0" in="convolve" result="extrude"/>
      <feComposite operator="in" in="flood-1" in2="extrude" result="comp-extrude"/>
      <feFlood flood-color="rgba(0%,0%,0%,0)" result="flood-2"/>
      <feComposite operator="in" in="flood-2" in2="SourceAlpha" result="comp2"/>
      <feMorphology operator="dilate" radius="1" in="comp2" result="dilate"/>
      <feOffset dx="0" dy="0" in="dilate" result="offset"/>
      <feGaussianBlur in="offset" stdDeviation="5.8" result="blur"/>
      <feComponentTransfer in="blur" result="shadow">
        <feFuncA type="linear" slope="0.8" intercept="-0.2"/>
      </feComponentTransfer>
      <feMerge>
        <feMergeNode in="shadow"/>
        <feMergeNode in="comp-extrude"/>
        <feMergeNode in="SourceGraphic"/>
      </feMerge>
    </filter>
    <style>text {
  font-size: 64px;
  font-family: Arial Black;
  dominant-baseline: central;
  text-anchor: middle;
}</style>
  </defs>
  <g filter="url(#editing-extrude-glow)" transform="matrix(1, 0, 0, 1, -1.4210854715202004e-14, 0)">
    <g transform="translate(159.1850243806839, 102.45500373840332)">
      <path d="M11.33 0L1.34-44.03L15.74-44.03L19.90-15.94L24.19-36.54L39.10-36.54L43.46-15.94L47.62-44.03L62.02-44.03L52.03 0L37.12 0L31.68-23.68L26.24 0L11.33 0ZM80.70 0.51L80.70 0.51Q76.54 0.51 72.93-1.70L72.93-1.70L72.93-1.70Q69.31-3.90 67.14-7.71L67.14-7.71L67.14-7.71Q64.96-11.52 64.96-16.19L64.96-16.19L64.96-16.19Q64.96-20.80 67.14-24.54L67.14-24.54L67.14-24.54Q69.31-28.29 72.96-30.40L72.96-30.40L72.96-30.40Q76.61-32.51 80.70-32.51L80.70-32.51L80.70-32.51Q84.03-32.51 86.88-30.66L86.88-30.66L86.88-30.66Q89.73-28.80 91.20-25.09L91.20-25.09L91.20-32.51L104.64-32.51L104.64 0L91.20 0L91.20-5.95L91.20-5.95Q88 0.51 80.70 0.51L80.70 0.51ZM84.86-9.60L84.86-9.60Q87.42-9.60 89.25-11.42L89.25-11.42L89.25-11.42Q91.07-13.25 91.20-15.74L91.20-15.74L91.20-16.26L91.20-16.26Q91.07-18.82 89.18-20.61L89.18-20.61L89.18-20.61Q87.30-22.40 84.86-22.40L84.86-22.40L84.86-22.40Q82.18-22.40 80.29-20.51L80.29-20.51L80.29-20.51Q78.40-18.62 78.40-16L78.40-16L78.40-16Q78.40-13.31 80.32-11.46L80.32-11.46L80.32-11.46Q82.24-9.60 84.86-9.60L84.86-9.60ZM122.18 0.51L122.18 0.51Q115.46 0.51 110.40-1.47L110.40-1.47L111.87-9.09L111.87-9.09Q116.48-7.42 120.83-7.42L120.83-7.42L120.83-7.42Q124.03-7.42 124.03-9.22L124.03-9.22L124.03-9.22Q124.03-10.11 123.10-10.69L123.10-10.69L123.10-10.69Q122.18-11.26 119.62-11.71L119.62-11.71L119.62-11.71Q114.30-12.74 111.97-15.17L111.97-15.17L111.97-15.17Q109.63-17.60 109.63-22.08L109.63-22.08L109.63-22.08Q109.89-27.14 113.66-29.82L113.66-29.82L113.66-29.82Q117.44-32.51 123.97-32.51L123.97-32.51L123.97-32.51Q127.30-32.51 129.70-32.10L129.70-32.10L129.70-32.10Q132.10-31.68 134.08-30.72L134.08-30.72L132.74-23.10L132.74-23.10Q130.88-23.81 128.67-24.19L128.67-24.19L128.67-24.19Q126.46-24.58 124.99-24.58L124.99-24.58L124.99-24.58Q122.82-24.58 121.98-24.13L121.98-24.13L121.98-24.13Q121.15-23.68 121.15-22.91L121.15-22.91L121.15-22.91Q121.15-21.50 124.35-20.93L124.35-20.93L124.35-20.93Q130.18-19.90 133.06-17.34L133.06-17.34L133.06-17.34Q135.94-14.78 135.94-10.37L135.94-10.37L135.94-10.37Q135.94-5.31 132.38-2.40L132.38-2.40L132.38-2.40Q128.83 0.51 122.18 0.51L122.18 0.51ZM140.67 10.88L140.67-31.62L154.18-31.62L154.18-26.05L154.18-26.05Q157.25-32.51 164.61-32.51L164.61-32.51L164.61-32.51Q168.90-32.51 172.51-30.37L172.51-30.37L172.51-30.37Q176.13-28.22 178.21-24.45L178.21-24.45L178.21-24.45Q180.29-20.67 180.29-16L180.29-16L180.29-16Q180.29-11.33 178.14-7.55L178.14-7.55L178.14-7.55Q176-3.78 172.38-1.63L172.38-1.63L172.38-1.63Q168.77 0.51 164.67 0.51L164.67 0.51L164.67 0.51Q157.38 0.51 154.18-5.95L154.18-5.95L154.18 8.32L140.67 10.88ZM160.58-9.60L160.58-9.60Q163.20-9.60 165.06-11.52L165.06-11.52L165.06-11.52Q166.91-13.44 166.91-16L166.91-16L166.91-16Q166.91-18.69 165.02-20.54L165.02-20.54L165.02-20.54Q163.14-22.40 160.58-22.40L160.58-22.40L160.58-22.40Q157.95-22.40 156.10-20.58L156.10-20.58L156.10-20.58Q154.24-18.75 154.24-16.26L154.24-16.26L154.24-16L154.24-16Q154.24-13.31 156.13-11.46L156.13-11.46L156.13-11.46Q158.02-9.60 160.58-9.60L160.58-9.60Z" fill="#e5d48e"/>
    </g>
  </g>
</svg>